<svg width="63" height="63" viewBox="0 0 63 63" fill="none" xmlns="http://www.w3.org/2000/svg">
<path d="M29.3906 41.8906C29.9635 42.4635 30.6802 42.7375 31.5406 42.7125C32.401 42.6875 33.1167 42.3875 33.6875 41.8125C34.2604 41.2396 34.5469 40.5104 34.5469 39.625C34.5469 38.7396 34.2604 38.0104 33.6875 37.4375L30.875 34.625H40.9531C41.8385 34.625 42.5677 34.325 43.1406 33.725C43.7135 33.125 44 32.3833 44 31.5C44 30.6146 43.7 29.8719 43.1 29.2719C42.5 28.6719 41.7583 28.3729 40.875 28.375H30.875L33.7656 25.4844C34.3385 24.9115 34.6125 24.1948 34.5875 23.3344C34.5625 22.474 34.2625 21.7583 33.6875 21.1875C33.1146 20.6146 32.3854 20.3281 31.5 20.3281C30.6146 20.3281 29.8854 20.6146 29.3125 21.1875L21.1875 29.3125C20.6146 29.8854 20.3281 30.6146 20.3281 31.5C20.3281 32.3854 20.6146 33.1146 21.1875 33.6875L29.3906 41.8906ZM31.5 62.75C27.1771 62.75 23.1146 61.9302 19.3125 60.2906C15.5104 58.651 12.2031 56.424 9.39063 53.6094C6.57813 50.7969 4.35208 47.4896 2.7125 43.6875C1.07292 39.8854 0.252083 35.8229 0.25 31.5C0.25 27.1771 1.07083 23.1146 2.7125 19.3125C4.35417 15.5104 6.58021 12.2031 9.39063 9.39063C12.2031 6.57813 15.5104 4.35104 19.3125 2.70938C23.1146 1.06771 27.1771 0.247921 31.5 0.250004C35.8229 0.250004 39.8854 1.07084 43.6875 2.7125C47.4896 4.35417 50.7969 6.58021 53.6094 9.39063C56.4219 12.2031 58.649 15.5104 60.2906 19.3125C61.9323 23.1146 62.7521 27.1771 62.75 31.5C62.75 35.8229 61.9292 39.8854 60.2875 43.6875C58.6458 47.4896 56.4198 50.7969 53.6094 53.6094C50.7969 56.4219 47.4896 58.649 43.6875 60.2906C39.8854 61.9323 35.8229 62.7521 31.5 62.75Z" fill="#2DBE96"/>
</svg>
