<svg width="63" height="63" viewBox="0 0 63 63" fill="none" xmlns="http://www.w3.org/2000/svg">
<path d="M33.6094 21.1094C33.0365 20.5365 32.3198 20.2625 31.4594 20.2875C30.599 20.3125 29.8833 20.6125 29.3125 21.1875C28.7396 21.7604 28.4531 22.4896 28.4531 23.375C28.4531 24.2604 28.7396 24.9896 29.3125 25.5625L32.125 28.375H22.0469C21.1615 28.375 20.4323 28.675 19.8594 29.275C19.2865 29.875 19 30.6167 19 31.5C19 32.3854 19.3 33.1281 19.9 33.7281C20.5 34.3281 21.2417 34.6271 22.125 34.625H32.125L29.2344 37.5156C28.6615 38.0885 28.3875 38.8052 28.4125 39.6656C28.4375 40.526 28.7375 41.2417 29.3125 41.8125C29.8854 42.3854 30.6146 42.6719 31.5 42.6719C32.3854 42.6719 33.1146 42.3854 33.6875 41.8125L41.8125 33.6875C42.3854 33.1146 42.6719 32.3854 42.6719 31.5C42.6719 30.6146 42.3854 29.8854 41.8125 29.3125L33.6094 21.1094ZM31.5 0.25C35.8229 0.25 39.8854 1.06979 43.6875 2.70937C47.4896 4.34895 50.7969 6.57604 53.6094 9.39062C56.4219 12.2031 58.6479 15.5104 60.2875 19.3125C61.9271 23.1146 62.7479 27.1771 62.75 31.5C62.75 35.8229 61.9292 39.8854 60.2875 43.6875C58.6458 47.4896 56.4198 50.7969 53.6094 53.6094C50.7969 56.4219 47.4896 58.649 43.6875 60.2906C39.8854 61.9323 35.8229 62.7521 31.5 62.75C27.1771 62.75 23.1146 61.9292 19.3125 60.2875C15.5104 58.6458 12.2031 56.4198 9.39062 53.6094C6.57812 50.7969 4.35104 47.4896 2.70938 43.6875C1.06771 39.8854 0.247917 35.8229 0.25 31.5C0.25 27.1771 1.07084 23.1146 2.7125 19.3125C4.35417 15.5104 6.5802 12.2031 9.39062 9.39062C12.2031 6.57812 15.5104 4.35104 19.3125 2.70937C23.1146 1.0677 27.1771 0.247917 31.5 0.25Z" fill="#2DBE96"/>
</svg>
