<svg width="164" height="206" viewBox="0 0 164 206" fill="none" xmlns="http://www.w3.org/2000/svg">
<path fill-rule="evenodd" clip-rule="evenodd" d="M69.9012 13.4398C56.8766 13.1282 27.1142 19.5054 12.2377 47.5084C12.1856 48.2897 10.9249 49.9775 6.29913 50.4776C3.7466 56.1557 -1.04591 69.856 0.20431 79.2327C2.23588 78.9201 6.61157 79.2327 7.86179 82.9833C9.47666 83.5042 12.8314 85.7026 13.3315 90.3284C13.3498 90.4974 13.3688 90.68 13.3892 90.8753L13.3895 90.8779L13.3898 90.8804L13.3898 90.8807C14.0676 97.3728 16.2018 117.815 38.6486 117.208C33.8039 124.084 24.2709 140.587 24.896 151.589C25.6774 165.342 28.6468 166.748 38.6486 164.091C45.3564 162.31 55.6613 161.392 61.3654 161.08L61.6887 161.827C52.2496 165.241 35.6374 171.638 35.5229 175.187C35.3666 180.031 58.3359 180.969 69.9012 180.813L61.6887 161.827L61.6908 161.827L69.9028 180.81L69.9026 205.348L69.9012 205.348V205.349L69.9026 205.348L69.904 205.349V205.348L78.184 202.223L76.9338 205.349L93.4992 194.722L91.155 199.723C95.8433 196.337 105.689 188.846 107.564 185.97C109.44 183.095 106.158 189.46 104.282 193.003C108.137 190.971 116.753 184.626 120.379 175.5L118.504 184.251C121.369 182.48 127.568 176.625 129.443 167.373V172.061C131.943 168.78 136.913 159.591 136.788 149.089L139.289 154.871C139.862 152.631 140.758 147.026 139.757 142.525H150.384C151.634 142.108 154.166 140.618 154.291 137.993C155.802 138.201 158.854 137.305 158.979 132.054C160.438 129.606 163.449 122.053 163.824 111.426C164.199 100.799 160.751 92.933 158.979 90.3284C159.292 88.1926 158.667 83.9522 153.666 84.0773C153.562 82.4624 152.728 79.2327 150.228 79.2327H145.227C144.237 71.2104 141.383 53.9782 137.882 49.2274C139.028 47.9772 140.976 44.8204 139.601 42.1949L139.572 42.1404C137.678 38.5202 118.249 1.40055 69.904 8.12905e-05V0L69.9026 4.0759e-05L69.9012 0V8.12905e-05H69.904V13.4399L69.9026 13.4398L69.9012 13.4398ZM19.3441 63.936L12.2377 47.5084L19.3439 63.9364C17.558 67.6889 16.2732 71.045 15.5195 73.4504C16.3078 72.3589 19.2112 71.738 22.575 71.4058L24.0628 74.8452L24.0633 74.8451L22.5755 71.4057C26.147 71.053 30.2374 71.0258 32.8663 71.1062C33.1788 69.283 36.7732 66.3242 48.6503 69.0746C60.5248 71.8245 67.7651 71.5752 69.9026 71.1066L69.9035 71.1068L69.9035 80.6398L69.9051 80.64V86.4223L69.9035 86.4225L69.9032 116.069C69.8552 116.071 69.81 116.074 69.7675 116.075V116.075C68.8255 116.046 66.4031 115.7 63.1487 115.236L63.1484 115.236L63.148 115.236L63.1478 115.236L63.1469 115.236L63.1458 115.236C60.6418 114.878 57.6455 114.451 54.4523 114.044C49.2891 113.384 45.0922 115.576 43.074 118.791L40.9583 113.901L40.9569 113.901L43.0731 118.793C41.0276 122.053 41.2218 126.366 44.9194 129.828C44.9536 128.46 45.1672 126.631 45.6596 124.772L55.3286 147.125C55.3293 147.124 55.33 147.124 55.3306 147.124L45.6603 124.77C46.669 120.964 48.8466 117.036 53.0458 116.7C55.8733 116.474 62.3094 117.565 66.3479 118.25C68.0446 118.538 69.3181 118.754 69.7229 118.77V118.771C69.7769 118.775 69.8371 118.777 69.9032 118.778L69.903 146.216C80.7938 146.031 92.9581 146.998 104.851 150.467C105.182 150.564 105.507 150.693 105.8 150.876C106.067 151.043 106.304 151.213 106.513 151.386C108.415 152.951 105.992 154.534 103.596 153.964C96.5751 152.294 83.9619 150.513 69.903 150.53L69.9028 180.81L69.904 180.813C81.4694 180.969 104.439 180.031 104.282 175.187C104.157 171.311 86.8314 164.196 78.184 161.122C82.5077 161.226 93.1553 161.966 101.157 164.091C111.158 166.748 114.128 165.342 114.909 151.589C115.534 140.587 106.001 124.084 101.157 117.208C123.604 117.815 125.738 97.3727 126.415 90.8807C126.436 90.6834 126.455 90.4989 126.474 90.3284C126.974 85.7026 130.329 83.5042 131.943 82.9833C133.194 79.2327 137.569 78.9201 139.601 79.2327C140.851 69.856 136.059 56.1557 133.506 50.4776C128.88 49.9775 127.62 48.2897 127.568 47.5084C112.691 19.5054 82.9286 13.1282 69.904 13.4399V22.3477L69.9039 22.3478L69.9026 22.3484L69.9012 22.3477V22.3491L61.7776 26.5672L63.4967 22.3477C63.4967 22.3477 52.1405 31.3076 48.6503 35.0062L50.8382 29.5364C50.8382 29.5364 39.7425 40.9447 36.617 45.0079L38.6486 38.9131C29.9086 45.057 23.3597 55.4985 19.3441 63.936ZM57.0402 151.076C57.0395 151.076 57.0388 151.076 57.0381 151.076L61.3654 161.08L61.3678 161.08L61.6908 161.827C62.5584 161.513 63.3654 161.225 64.0934 160.966C63.3949 160.983 62.4668 161.02 61.3678 161.08L57.0402 151.076ZM45.6603 124.77L45.6596 124.772L43.0731 118.793L43.074 118.791L45.6603 124.77ZM69.9032 118.778L69.9032 116.069C70.9881 116.005 73.4805 115.655 76.7288 115.198L76.7301 115.198L76.7328 115.197C79.2178 114.848 82.145 114.436 85.2227 114.044C95.6217 112.716 102.101 122.951 94.7556 129.828C94.6515 125.66 92.8803 117.2 86.6292 116.7C84.2429 116.509 79.5291 117.311 75.6332 117.973C73.0717 118.409 70.8637 118.784 69.9032 118.778ZM69.9035 71.1068C72.0423 71.5753 79.2822 71.8241 91.155 69.0746C103.032 66.3242 106.626 69.283 106.939 71.1062C112.044 70.95 122.66 71.2 124.286 73.4504C121.837 65.6365 113.784 47.7897 101.157 38.9131L103.188 45.0079C100.063 40.9447 88.9671 29.5364 88.9671 29.5364L91.155 35.0062C87.6648 31.3076 76.3086 22.3477 76.3086 22.3477L78.0277 26.5672L69.904 22.3491L69.9035 71.1068ZM19.3441 63.936L22.5755 71.4057L22.575 71.4058L19.3439 63.9364L19.3441 63.936ZM29.1941 86.7077L27.6828 83.2138L27.6835 83.2137L29.1948 86.7073L29.1941 86.7077ZM68.0485 124.67L67.4234 134.36C67.1599 130.013 64.2322 129.774 60.0435 129.432C59.2625 129.368 58.4375 129.301 57.5779 129.202C54.4523 129.202 50.0766 126.546 50.858 123.42C52.4668 116.985 64.4541 121.545 68.0485 124.67ZM71.6266 124.67L72.2517 134.36C72.5151 130.013 75.4429 129.774 79.6315 129.432C80.4126 129.368 81.2375 129.301 82.0972 129.202C85.2227 129.202 89.5985 126.546 88.8171 123.42C87.2083 116.985 75.2209 121.545 71.6266 124.67ZM69.9353 80.6388C71.8627 80.4305 77.4991 79.3886 84.6254 76.8882C93.5332 73.7626 114.006 72.9814 125.258 76.8882C130.317 78.6451 127.133 86.5774 124.476 86.4212L124.472 86.4476C122.286 100.659 120.245 113.926 100.878 113.926C82.1543 113.926 79.8645 107.296 76.8306 98.5119C75.9395 95.932 74.9843 93.1663 73.5297 90.3281C71.5293 86.5774 69.9353 86.4212 69.9353 86.4212V80.6388ZM83.6012 92.5647C83.2887 90.5852 83.0699 86.1885 84.6952 84.4382C86.3205 82.6879 93.8113 82.8755 97.3536 83.188C93.7072 84.282 85.8516 87.6888 83.6012 92.5647Z" fill="white"/>
</svg>
