<svg width="35" height="35" viewBox="0 0 35 35" fill="none" xmlns="http://www.w3.org/2000/svg">
<path fill-rule="evenodd" clip-rule="evenodd" d="M31.1111 25.2778C31.1111 26.8249 30.4965 28.3086 29.4026 29.4026C28.3086 30.4965 26.8249 31.1111 25.2778 31.1111H9.72222C8.17513 31.1111 6.69139 30.4965 5.59743 29.4026C4.50347 28.3086 3.88889 26.8249 3.88889 25.2778V9.72222C3.88889 8.17513 4.50347 6.69139 5.59743 5.59743C6.69139 4.50347 8.17513 3.88889 9.72222 3.88889H25.2778C26.8249 3.88889 28.3086 4.50347 29.4026 5.59743C30.4965 6.69139 31.1111 8.17513 31.1111 9.72222V25.2778ZM13.3589 11.3025C14.5847 10.4834 16.0258 10.0463 17.5 10.0463C19.4768 10.0463 21.3727 10.8316 22.7706 12.2294C24.1684 13.6273 24.9537 15.5232 24.9537 17.5C24.9537 18.9742 24.5166 20.4153 23.6975 21.6411C22.8785 22.8668 21.7144 23.8222 20.3524 24.3863C18.9904 24.9505 17.4917 25.0981 16.0459 24.8105C14.6 24.5229 13.2719 23.813 12.2294 22.7706C11.187 21.7281 10.4771 20.4 10.1895 18.9541C9.90191 17.5083 10.0495 16.0096 10.6137 14.6476C11.1778 13.2856 12.1332 12.1215 13.3589 11.3025ZM28.0816 10.5144C28.3665 10.0881 28.5185 9.58684 28.5185 9.07407C28.5185 8.38648 28.2454 7.72704 27.7592 7.24083C27.273 6.75463 26.6135 6.48148 25.9259 6.48148C25.4132 6.48148 24.9119 6.63353 24.4856 6.91841C24.0592 7.20329 23.7269 7.6082 23.5307 8.08193C23.3345 8.55567 23.2831 9.07695 23.3831 9.57986C23.4832 10.0828 23.7301 10.5447 24.0927 10.9073C24.4553 11.2699 24.9172 11.5168 25.4201 11.6169C25.923 11.7169 26.4443 11.6655 26.9181 11.4693C27.3918 11.2731 27.7967 10.9408 28.0816 10.5144Z" fill="#2DBE96"/>
<path fill-rule="evenodd" clip-rule="evenodd" d="M25.2778 0H9.72222C7.14373 0 4.67084 1.0243 2.84757 2.84757C1.0243 4.67084 0 7.14373 0 9.72222V25.2778C0 27.8563 1.0243 30.3292 2.84757 32.1524C4.67084 33.9757 7.14373 35 9.72222 35H25.2778C27.8563 35 30.3292 33.9757 32.1524 32.1524C33.9757 30.3292 35 27.8563 35 25.2778V9.72222C35 7.14373 33.9757 4.67084 32.1524 2.84757C30.3292 1.0243 27.8563 0 25.2778 0ZM31.1111 25.2778C31.1111 26.8249 30.4965 28.3086 29.4026 29.4026C28.3086 30.4965 26.8249 31.1111 25.2778 31.1111H9.72222C8.17513 31.1111 6.69139 30.4965 5.59743 29.4026C4.50347 28.3086 3.88889 26.8249 3.88889 25.2778V9.72222C3.88889 8.17513 4.50347 6.69139 5.59743 5.59743C6.69139 4.50347 8.17513 3.88889 9.72222 3.88889H25.2778C26.8249 3.88889 28.3086 4.50347 29.4026 5.59743C30.4965 6.69139 31.1111 8.17513 31.1111 9.72222V25.2778Z" fill="#2DBE96"/>
<path d="M17.5 21.0648C16.7949 21.0648 16.1057 20.8557 15.5195 20.464C14.9333 20.0723 14.4764 19.5156 14.2065 18.8642C13.9367 18.2128 13.8661 17.496 14.0037 16.8045C14.1412 16.113 14.4807 15.4778 14.9793 14.9793C15.4778 14.4807 16.113 14.1412 16.8045 14.0037C17.496 13.8661 18.2128 13.9367 18.8642 14.2065C19.5156 14.4764 20.0723 14.9333 20.464 15.5195C20.8557 16.1057 21.0648 16.7949 21.0648 17.5C21.0606 18.4441 20.6836 19.3484 20.016 20.016C19.3484 20.6836 18.4441 21.0606 17.5 21.0648Z" fill="#2DBE96"/>
</svg>
