<svg width="35" height="29" viewBox="0 0 35 29" fill="none" xmlns="http://www.w3.org/2000/svg">
<path d="M31.5 0.5H3.5C1.575 0.5 0 2.075 0 4V25C0 26.925 1.575 28.5 3.5 28.5H31.5C33.425 28.5 35 26.925 35 25V4C35 2.075 33.425 0.5 31.5 0.5ZM30.8 7.9375L19.355 15.095C18.2175 15.8125 16.7825 15.8125 15.645 15.095L4.2 7.9375C4.02452 7.83899 3.87086 7.70591 3.74831 7.54629C3.62575 7.38668 3.53686 7.20386 3.48701 7.0089C3.43715 6.81394 3.42738 6.61089 3.45827 6.41204C3.48917 6.21319 3.56009 6.02267 3.66674 5.85203C3.7734 5.68138 3.91357 5.53415 4.07877 5.41924C4.24397 5.30434 4.43077 5.22414 4.62787 5.18352C4.82496 5.1429 5.02825 5.14269 5.22542 5.18291C5.4226 5.22313 5.60956 5.30293 5.775 5.4175L17.5 12.75L29.225 5.4175C29.3904 5.30293 29.5774 5.22313 29.7746 5.18291C29.9718 5.14269 30.175 5.1429 30.3721 5.18352C30.5692 5.22414 30.756 5.30434 30.9212 5.41924C31.0864 5.53415 31.2266 5.68138 31.3333 5.85203C31.4399 6.02267 31.5108 6.21319 31.5417 6.41204C31.5726 6.61089 31.5628 6.81394 31.513 7.0089C31.4631 7.20386 31.3743 7.38668 31.2517 7.54629C31.1291 7.70591 30.9755 7.83899 30.8 7.9375Z" fill="white"/>
</svg>
