<svg width="62" height="84" viewBox="0 0 62 84" fill="none" xmlns="http://www.w3.org/2000/svg">
<path fill-rule="evenodd" clip-rule="evenodd" d="M23.5417 5.45509L23.5411 5.45507L23.5405 5.45506V5.45509L23.5411 5.45507L23.5411 9.07094L23.5411 9.07096L23.5405 9.07066V9.07127L20.2432 10.7833L20.941 9.07066C20.941 9.07066 16.3316 12.7074 14.915 14.2086L15.803 11.9885C15.803 11.9885 11.2994 16.619 10.0308 18.2682L10.8554 15.7944C5.73018 19.3973 2.46136 26.6411 1.4676 29.8127C2.12729 28.8993 6.43638 28.7978 8.50846 28.8612C8.63532 28.1212 10.0942 26.9202 14.915 28.0366C19.7347 29.1527 22.6735 29.0515 23.5411 28.8613L23.5413 28.8614L23.5413 32.7309C22.7585 32.6462 20.4711 32.2233 17.5793 31.2086C13.9638 29.94 5.65424 29.6229 1.08725 31.2086C-0.966481 31.9217 0.326062 35.1414 1.40439 35.0779L1.40604 35.0887C2.29345 40.8569 3.12191 46.2418 10.9825 46.2418C18.5823 46.2418 19.5117 43.5509 20.7432 39.9854C21.1048 38.9383 21.4926 37.8157 22.083 36.6637C22.8812 35.167 23.52 35.0805 23.5413 35.078L23.5414 40.193L23.5413 47.1109C23.5218 47.112 23.5035 47.113 23.4862 47.1136V47.1135C23.1039 47.1016 22.1205 46.9613 20.7994 46.7729C19.7829 46.6279 18.5664 46.4544 17.27 46.2889C13.0491 45.7501 10.4194 49.9045 13.4007 52.6955C13.443 51.004 14.1619 47.5702 16.6991 47.3673C17.8467 47.2754 20.4591 47.7184 22.0982 47.9963L22.0983 47.9963C22.787 48.113 23.3038 48.2007 23.4681 48.2073V48.2077C23.49 48.2094 23.5145 48.2103 23.5413 48.2105L23.5412 59.3472C18.8976 59.4263 14.8244 60.0217 12.0486 60.4981C11.25 60.6351 10.6024 60.9873 10.1328 61.3854C9.18533 62.1888 10.0385 62.7566 11.2444 62.4579C15.2447 61.4671 19.5374 61.103 23.5412 61.0982L23.5411 83.3484L23.5405 83.3481V83.3486L23.5411 83.3484L23.5417 83.3486V83.3481L26.9024 82.0799L26.3949 83.3486L33.1186 79.0352L32.1671 81.065C34.0701 79.6907 38.0663 76.6502 38.8275 75.4831C39.5886 74.316 38.2566 76.8997 37.4954 78.3375C39.06 77.5129 42.5572 74.9376 44.0288 71.2332L43.2676 74.7854C44.4305 74.0665 46.9466 71.6899 47.7078 67.9348V69.8377C48.7227 68.5057 50.7398 64.7759 50.6891 60.5133L51.704 62.8603C51.9366 61.9511 52.3002 59.6761 51.8943 57.8492H56.2076C56.715 57.6801 57.7426 57.0754 57.7934 56.0097C58.4065 56.0943 59.6456 55.7306 59.6963 53.5993C60.2883 52.6056 61.5104 49.5398 61.6627 45.2264C61.8149 40.9131 60.4152 37.7204 59.6963 36.6632C59.8232 35.7963 59.5694 34.0752 57.5396 34.126C57.4973 33.4705 57.159 32.1596 56.1441 32.1596H54.1143C53.7126 28.9035 52.5539 21.9091 51.1331 19.9808C51.5982 19.4734 52.389 18.1921 51.8308 17.1264L51.8192 17.1043C51.0501 15.6348 43.1643 0.568475 23.5417 3.35768e-05V5.45509ZM23.5415 61.0982L23.5417 73.3899C28.2359 73.4532 37.5588 73.0726 37.4954 71.1064C37.4447 69.5333 30.4123 66.645 26.9024 65.3975C28.6573 65.4398 32.9791 65.7401 36.2267 66.6027C40.2863 67.6811 41.4916 67.1102 41.8087 61.5282C42.0624 57.0627 38.1931 50.3644 36.2267 47.5734C45.3376 47.8196 46.2039 39.5224 46.479 36.8874C46.4873 36.8073 46.4951 36.7325 46.5026 36.6632C46.7056 34.7857 48.0673 33.8934 48.7227 33.682C49.2302 32.1596 51.0062 32.0327 51.8308 32.1596C52.3382 28.3537 50.393 22.7929 49.357 20.4883C47.4794 20.2853 46.9677 19.6002 46.9466 19.2831C40.9084 7.91705 28.8282 5.3286 23.5417 5.45509V9.07066L23.5416 9.0707L23.5411 9.07094L23.5413 28.8614L23.5415 28.8614L23.5414 32.7309L23.5419 32.731V35.0779L23.5414 35.078L23.5414 40.193L23.5414 47.1109L23.5413 47.1109L23.5413 48.2105L23.5414 48.2105L23.5415 59.3472C27.9506 59.2722 32.8738 59.6625 37.6889 61.0619C37.8481 61.1081 38.1459 61.2547 38.2801 61.3521C39.2369 62.047 38.0624 62.6818 36.909 62.4209C34.0077 61.7645 29.0478 61.0917 23.5415 61.0982ZM23.5414 48.2105L23.5414 47.1109C23.9818 47.085 24.9934 46.9428 26.3117 46.7575L26.3119 46.7574L26.3129 46.7573C27.3216 46.6155 28.5099 46.4484 29.7593 46.2889C33.9802 45.7501 36.6099 49.9045 33.6286 52.6955C33.5863 51.004 32.8674 47.5702 30.3302 47.3673C29.3616 47.2898 27.4483 47.615 25.867 47.8839L25.867 47.8839L25.8665 47.884C24.8272 48.0607 23.9313 48.213 23.5414 48.2105ZM23.5415 28.8614C24.4095 29.0516 27.3481 29.1526 32.1671 28.0366C36.9879 26.9202 38.4468 28.1212 38.5737 28.8612C40.6458 28.7978 44.9549 28.8993 45.6145 29.8127C44.6208 26.6411 41.352 19.3973 36.2267 15.7944L37.0513 18.2682C35.7827 16.619 31.2791 11.9885 31.2791 11.9885L32.1671 14.2086C30.7505 12.7074 26.1412 9.07066 26.1412 9.07066L26.8389 10.7833L23.5417 9.07127L23.5415 28.8614ZM23.5411 1.68883e-05L23.5405 0V3.35768e-05L23.5411 1.68883e-05ZM22.7885 50.6022L22.5348 54.535C22.4278 52.7707 21.2395 52.6737 19.5394 52.5349L19.5391 52.5348C19.2221 52.509 18.8874 52.4816 18.5386 52.4417C17.27 52.4417 15.4939 51.3634 15.8111 50.0948C16.4641 47.4828 21.3296 49.3336 22.7885 50.6022ZM24.2408 50.6022L24.4945 54.535C24.6014 52.7707 25.7898 52.6737 27.4899 52.5349C27.8069 52.509 28.1418 52.4816 28.4907 52.4418C29.7593 52.4418 31.5354 51.3634 31.2182 50.0948C30.5652 47.4828 25.6997 49.3336 24.2408 50.6022ZM5.0823 34.2536C4.42261 34.964 4.51142 36.7485 4.63828 37.552C5.55169 35.5729 8.74016 34.1901 10.2202 33.7461C8.78244 33.6193 5.74198 33.5431 5.0823 34.2536ZM23.5536 32.7298C24.336 32.6453 26.6237 32.2224 29.5162 31.2075C33.1317 29.9389 41.4413 29.6217 46.0083 31.2075C48.062 31.9206 46.7695 35.1402 45.6911 35.0768L45.6895 35.0875C44.8021 40.8557 43.9736 46.2407 36.113 46.2407C28.5132 46.2407 27.5838 43.5498 26.3523 39.9843C25.9907 38.9372 25.603 37.8146 25.0126 36.6626C24.2006 35.1402 23.5536 35.0768 23.5536 35.0768V32.7298ZM29.1005 37.5704C28.9736 36.7669 28.8848 34.9824 29.5445 34.272C30.2042 33.5615 33.2446 33.6376 34.6824 33.7645C33.2024 34.2085 30.0139 35.5913 29.1005 37.5704Z" fill="white"/>
</svg>
