<svg width="243" height="180" viewBox="0 0 243 180" fill="none" xmlns="http://www.w3.org/2000/svg">
<g filter="url(#filter0_d_267_152)">
<path d="M236.057 3.26705V169.085H200.999V36.544H200.027L162.054 60.348V29.2571L203.104 3.26705H236.057Z" fill="white"/>
<path d="M104.131 86.338C104.131 73.7019 102.831 63.1234 100.201 54.6297C97.6309 46.156 93.9387 39.6861 89.0655 35.3159C84.2382 30.9385 78.5201 28.7429 71.9593 28.7429C62.0981 28.7429 54.2442 33.7094 48.4314 43.3974C42.6265 53.0722 39.7607 67.4294 39.7065 86.3352V86.3381C39.7065 99.1354 40.9799 109.872 43.5534 118.524L43.5556 118.531C46.1705 127.084 49.9407 134.303 54.8275 138.74L56.172 137.26C51.6674 133.169 48.0362 126.344 45.4693 117.95C42.9698 109.546 41.7066 99.0172 41.7065 86.3396C41.7604 67.5699 44.6161 53.6435 50.1464 44.4264C55.6688 35.2224 62.9285 30.7429 71.9593 30.7429C78.0284 30.7429 83.2671 32.757 87.7236 36.799L87.7279 36.8028C92.2448 40.8525 95.7844 46.9573 98.2878 55.2135L98.2896 55.2191C100.841 63.458 102.131 73.8219 102.131 86.3381L102.131 86.3409C102.158 95.7608 100.069 106.183 97.2541 115.461C94.439 124.741 90.9214 132.801 88.1397 137.49L89.8598 138.51C92.7458 133.645 96.3208 125.428 99.168 116.042C102.016 106.655 104.158 96.0253 104.131 86.338ZM104.131 86.338C104.131 86.338 104.131 86.338 104.131 86.3381H103.131L104.131 86.3353C104.131 86.3362 104.131 86.3371 104.131 86.338ZM88.9998 138C94.6674 128.446 103.185 105.446 103.131 86.3381M71.9593 29.7429C62.5133 29.7429 54.9565 34.4659 49.2889 43.9119M6.00051 86.341V86.3381C6.00051 68.3502 8.65892 53.0793 13.9376 40.4949C19.271 27.909 26.8468 18.3871 36.6451 11.8725L36.6461 11.8718C46.4981 5.30387 58.2542 2 71.9593 2C85.6646 2 97.3927 5.30391 107.189 11.8704L107.192 11.8718C117.046 18.4414 124.649 27.9918 129.982 40.5776L129.982 40.5791C135.313 53.1066 137.972 68.348 137.918 86.3351V86.3381C137.918 104.411 133.918 124.196 128.577 136.961L130.422 137.733C135.876 124.697 139.918 104.648 139.918 86.3411C139.972 68.1633 137.287 52.6377 131.823 39.7959C126.36 26.9056 118.526 17.025 108.302 10.2084C98.1275 3.38904 85.9979 0 71.9593 0C57.9204 0 45.7648 3.3892 35.5372 10.2074C25.3647 16.9709 17.5574 26.8261 12.0954 39.7164L12.094 39.7197C6.68578 52.612 4.00066 68.1611 4.00051 86.3366C3.9464 104.599 8.17954 124.702 13.5759 137.729L15.4236 136.964C10.1326 124.191 5.94691 104.351 6.00051 86.341ZM237.057 3.26705V2.26705H236.057H203.104H202.814L202.569 2.42215L161.519 28.4122L161.054 28.7067V29.2571V60.348V62.1551L162.585 61.1953L199.999 37.7421V169.085V170.085H200.999H236.057H237.057V169.085V3.26705Z" stroke="white" stroke-width="2"/>
</g>
<defs>
<filter id="filter0_d_267_152" x="0" y="0" width="242.057" height="179.085" filterUnits="userSpaceOnUse" color-interpolation-filters="sRGB">
<feFlood flood-opacity="0" result="BackgroundImageFix"/>
<feColorMatrix in="SourceAlpha" type="matrix" values="0 0 0 0 0 0 0 0 0 0 0 0 0 0 0 0 0 0 127 0" result="hardAlpha"/>
<feOffset dy="4"/>
<feGaussianBlur stdDeviation="2"/>
<feComposite in2="hardAlpha" operator="out"/>
<feColorMatrix type="matrix" values="0 0 0 0 0 0 0 0 0 0 0 0 0 0 0 0 0 0 0.25 0"/>
<feBlend mode="normal" in2="BackgroundImageFix" result="effect1_dropShadow_267_152"/>
<feBlend mode="normal" in="SourceGraphic" in2="effect1_dropShadow_267_152" result="shape"/>
</filter>
</defs>
</svg>
