<svg width="280" height="178" viewBox="0 0 280 178" fill="none" xmlns="http://www.w3.org/2000/svg">
<path d="M159.414 176.246V175.246V152.881V152.461L159.714 152.167L219.037 94.0112C219.039 94.0094 219.041 94.0075 219.043 94.0057C224.703 88.2894 229.412 83.2199 233.173 78.7955C236.911 74.3973 239.692 70.1635 241.536 66.0953C243.367 62.0566 244.284 57.7471 244.284 53.1559C244.284 47.9141 243.097 43.491 240.769 39.8406L240.765 39.8351C238.42 36.1034 235.197 33.2225 231.072 31.1869C226.944 29.1497 222.231 28.119 216.91 28.119C211.433 28.119 206.681 29.2568 202.623 31.4992L202.614 31.5041C198.557 33.6928 195.414 36.808 193.17 40.8674C190.984 44.9205 189.871 49.7835 189.871 55.4925V56.4925H188.871H159.412H158.412V55.4925C158.412 44.4869 160.926 34.8688 165.989 26.6767C171.04 18.5035 177.996 12.1759 186.833 7.70056L186.836 7.6994C195.73 3.22397 205.902 1 217.328 1C228.914 1 239.14 3.16585 247.98 7.52907C256.806 11.8855 263.682 17.8717 268.574 25.4933C273.526 33.122 275.993 41.8249 275.993 51.5703C275.993 58.0993 274.743 64.5107 272.251 70.7989C269.751 77.1039 265.373 84.0366 259.159 91.5933C259.159 91.5937 259.159 91.5942 259.158 91.5946L258.386 90.9595C252.266 98.4702 243.671 107.566 232.599 118.248L159.414 176.246ZM159.414 176.246H160.414H277.58H278.58V175.246V149.376V148.376H277.58H204.378L233.303 118.959L159.414 176.246ZM66.8434 27.7866C56.2172 27.7866 47.8164 33.0718 41.641 43.6424M6.55221 136.113L6.80209 136.746H7.4823H40.9823H42.6571L41.8626 135.271C41.1192 133.892 40.6244 133.037 40.2705 132.425L40.1958 132.296C39.8365 131.675 39.6572 131.355 39.485 130.943C39.2367 130.349 39.0076 129.584 38.462 127.763C38.1847 126.837 37.8257 125.639 37.3408 124.051C34.5967 114.884 33.239 103.53 33.2944 89.9622L33.2944 89.9608C33.3498 69.6705 36.459 54.4405 42.5033 44.1488L42.5044 44.1468C48.5331 33.8275 56.6327 28.7866 66.8434 28.7866C73.6615 28.7866 79.5401 31.0591 84.5281 35.6181L84.5325 35.6221C89.5305 40.1365 93.46 46.9101 96.2639 56.0366C99.0629 65.1469 100.476 76.4459 100.476 89.9581C100.476 110.454 98.2084 124.911 92.1208 135.238L91.232 136.746H92.9823H125H125.678L125.929 136.116C131.272 122.731 133.687 108.746 133.687 89.9581C133.687 71.287 131.032 55.2978 125.687 42.0189C120.398 28.7413 112.75 18.5577 102.717 11.529C92.6792 4.4967 80.7053 1 66.8434 1C52.9815 1 41.0076 4.4967 30.9696 11.529L30.9674 11.5305C20.9913 18.5591 13.3442 28.7417 8.00025 42.0172L7.99944 42.0192C2.71045 55.2417 0.0559004 71.23 0 89.9551V89.9581C0 108.629 1.25146 122.692 6.55221 136.113ZM35.4255 124.627L35.4271 124.632C35.8722 126.09 36.2151 127.234 36.4894 128.149C37.0764 130.109 37.3496 131.02 37.6398 131.714C37.8678 132.26 38.1088 132.683 38.4645 133.298L38.5393 133.427C38.7402 133.774 38.9841 134.195 39.2925 134.746H8.16577C3.21387 121.873 2.00007 108.263 2 89.9596C2.05551 71.4109 4.68607 55.6884 9.85591 42.7632C15.0823 29.7802 22.5116 19.9349 32.1182 13.1663C41.7745 6.40172 53.3337 3 66.8434 3C80.3536 3 91.9131 6.40198 101.57 13.167C111.231 19.9354 118.659 29.7796 123.83 42.7607L123.831 42.764C129.056 55.7443 131.687 71.4662 131.687 89.9581C131.687 108.259 129.375 121.838 124.32 134.746H94.6917C100.42 124.065 102.476 109.581 102.476 89.9581C102.476 76.3207 101.051 64.8095 98.1757 55.4492C95.3052 46.106 91.2239 38.9716 85.8747 34.1394C80.5154 29.2421 74.1552 26.7866 66.8434 26.7866C55.8018 26.7866 47.1 32.316 40.7778 43.1375C34.472 53.8754 31.3504 69.5215 31.2944 89.954C31.2385 103.646 32.6067 115.212 35.4255 124.627Z" stroke="white" stroke-width="2"/>
</svg>
