<svg width="316" height="289" viewBox="0 0 316 289" fill="none" xmlns="http://www.w3.org/2000/svg">
<mask id="mask0_267_173" style="mask-type:alpha" maskUnits="userSpaceOnUse" x="12" y="54" width="290" height="181">
<path d="M43.7092 223.701L42.5449 225.327L42.5554 225.335L43.7092 223.701ZM20.7088 192.892L18.8486 193.627L18.8524 193.637L20.7088 192.892ZM12.7308 144.261L10.7308 144.255V144.261H12.7308ZM20.7937 95.8835L18.9384 95.1367L18.9367 95.1407L20.7937 95.8835ZM43.794 65.3295L42.6465 63.6915L42.6421 63.6946L43.794 65.3295ZM115.596 65.3295L114.448 66.9676L115.596 65.3295ZM138.596 95.8835L136.738 96.6236L136.741 96.6304L138.596 95.8835ZM138.596 192.977L136.739 192.236L136.737 192.24L138.596 192.977ZM115.596 223.701L114.442 222.067L114.438 222.07L115.596 223.701ZM105.411 191.704L103.688 190.689L103.687 190.691L105.411 191.704ZM110.588 109.463L112.5 108.876L110.588 109.463ZM98.3668 88.245L97.0175 89.7213L97.0263 89.7292L98.3668 88.245ZM54.0636 97.1566L55.7881 98.1694L55.7905 98.1655L54.0636 97.1566ZM44.5579 144.261L46.5579 144.269L46.5579 144.266L44.5579 144.261ZM48.7166 179.228L46.8006 179.802L46.8038 179.812L48.7166 179.228ZM60.9382 200.616L59.5889 202.092L59.5976 202.1L60.9382 200.616ZM79.695 232.31C66.0726 232.31 54.4944 228.869 44.8629 222.067L42.5554 225.335C52.9537 232.678 65.3661 236.31 79.695 236.31V232.31ZM44.8734 222.075C35.2773 215.205 27.8244 205.269 22.5652 192.148L18.8524 193.637C24.3436 207.336 32.2244 217.939 42.5449 225.327L44.8734 222.075ZM22.569 192.158C17.3664 178.985 14.7308 163.038 14.7308 144.261H10.7308C10.7308 163.393 13.4139 179.867 18.8486 193.627L22.569 192.158ZM14.7308 144.267C14.7869 125.487 17.4507 109.626 22.6506 96.6263L18.9367 95.1407C13.4994 108.734 10.7879 125.125 10.7308 144.255L14.7308 144.267ZM22.649 96.6304C27.9069 83.5687 35.3563 73.7208 44.9459 66.9645L42.6421 63.6946C32.3151 70.9705 24.431 81.4918 18.9384 95.1367L22.649 96.6304ZM44.9416 66.9676C54.575 60.2187 66.1277 56.8054 79.695 56.8054V52.8054C65.4242 52.8054 53.0429 56.4082 42.6465 63.6915L44.9416 66.9676ZM79.695 56.8054C93.2623 56.8054 104.815 60.2187 114.448 66.9676L116.743 63.6915C106.347 56.4082 93.9657 52.8054 79.695 52.8054V56.8054ZM114.448 66.9676C124.091 73.7231 131.538 83.5677 136.738 96.6236L140.454 95.1434C135.017 81.4929 127.13 70.9682 116.743 63.6915L114.448 66.9676ZM136.741 96.6304C141.996 109.685 144.659 125.542 144.659 144.261H148.659C148.659 125.183 145.947 108.789 140.452 95.1367L136.741 96.6304ZM144.659 144.261C144.659 163.093 141.996 179.066 136.739 192.236L140.454 193.719C145.947 179.956 148.659 163.451 148.659 144.261H144.659ZM136.737 192.24C131.536 205.354 124.087 215.256 114.442 222.067L116.75 225.335C127.134 218.001 135.019 207.42 140.455 193.715L136.737 192.24ZM114.438 222.07C104.865 228.869 93.3176 232.31 79.695 232.31V236.31C94.0235 236.31 106.41 232.678 116.754 225.332L114.438 222.07ZM79.695 209.745C91.3802 209.745 100.557 203.919 107.136 192.717L103.687 190.691C97.7045 200.877 89.737 205.745 79.695 205.745V209.745ZM107.134 192.72C113.737 181.519 116.917 165.283 116.917 144.261H112.917C112.917 164.995 109.76 180.388 103.688 190.689L107.134 192.72ZM116.917 144.261C116.917 130.33 115.463 118.518 112.5 108.876L108.677 110.05C111.485 119.193 112.917 130.58 112.917 144.261H116.917ZM112.5 108.876C109.548 99.2654 105.321 91.8315 99.7074 86.7608L97.0263 89.7292C101.936 94.1642 105.858 100.876 108.677 110.05L112.5 108.876ZM99.7161 86.7687C94.0822 81.6194 87.3757 79.0309 79.695 79.0309V83.0309C86.3859 83.0309 92.1273 85.2518 97.0175 89.7213L99.7161 86.7687ZM79.695 79.0309C68.0568 79.0309 58.9107 84.8948 52.3367 96.1477L55.7905 98.1655C61.7775 87.9174 69.719 83.0309 79.695 83.0309V79.0309ZM52.339 96.1438C45.7962 107.284 42.6149 123.403 42.5579 144.255L46.5579 144.266C46.6141 123.701 49.7699 108.417 55.7881 98.1694L52.339 96.1438ZM42.5579 144.252C42.5008 158.239 43.8973 170.105 46.8007 179.802L50.6326 178.654C47.8778 169.453 46.5018 158.007 46.5579 144.269L42.5579 144.252ZM46.8038 179.812C49.7555 189.477 53.9796 196.965 59.5889 202.092L62.2875 199.139C57.3726 194.647 53.4491 187.877 50.6294 178.644L46.8038 179.812ZM59.5976 202.1C65.2359 207.193 71.9689 209.745 79.695 209.745V205.745C72.9361 205.745 67.1647 203.545 62.2788 199.132L59.5976 202.1ZM204.648 227.096L203.838 228.924L203.842 228.926L204.648 227.096ZM182.242 209.612L183.853 208.428L182.242 209.612ZM173.5 183.726V181.726H171.429L171.501 183.796L173.5 183.726ZM205.412 183.726L207.408 183.606L207.295 181.726H205.412V183.726ZM210.08 196.033L208.523 197.288L208.528 197.294L208.533 197.301L210.08 196.033ZM221.368 204.096L220.61 205.946L221.368 204.096ZM253.704 203.756L254.52 205.582L254.529 205.578L254.538 205.574L253.704 203.756ZM264.992 194.59L263.35 193.448L264.992 194.59ZM268.981 181.095L266.981 181.074L266.981 181.096L266.981 181.117L268.981 181.095ZM264.907 167.176L263.261 168.312V168.312L264.907 167.176ZM252.855 157.755L252.058 159.589L252.065 159.593L252.855 157.755ZM218.652 154.36H216.652V156.36H218.652V154.36ZM218.652 130.087V128.087H216.652V130.087H218.652ZM249.885 126.947L249.054 125.128L249.045 125.131L249.885 126.947ZM260.664 118.12L262.312 119.252L262.32 119.241L260.664 118.12ZM264.483 104.795L262.483 104.772L262.483 104.795L262.483 104.818L264.483 104.795ZM261.173 91.9794L259.458 93.0084L259.467 93.024L259.477 93.0394L261.173 91.9794ZM251.752 83.4073L250.848 85.1911L250.858 85.1962L251.752 83.4073ZM222.811 83.2376L223.593 85.0782L222.811 83.2376ZM211.862 91.4702L213.431 92.7103L213.436 92.7042L213.441 92.6981L211.862 91.4702ZM207.449 104.031V106.031H209.38L209.448 104.101L207.449 104.031ZM177.149 104.031L175.15 103.985L175.102 106.031H177.149V104.031ZM185.552 78.3999L183.939 77.2177L183.937 77.2198L185.552 78.3999ZM207.279 61.0859L208.109 62.9055L208.119 62.9012L207.279 61.0859ZM267.963 61.3405L267.054 63.1223L267.061 63.1259L267.068 63.1294L267.963 61.3405ZM287.908 78.7393L286.226 79.8215L287.908 78.7393ZM294.952 102.928H292.952L292.952 102.939L294.952 102.928ZM286.295 127.541L284.794 126.219L284.787 126.227L286.295 127.541ZM263.549 140.526L263.125 138.572L261.549 138.914V140.526H263.549ZM263.549 141.884H261.549V143.626L263.274 143.865L263.549 141.884ZM291.642 155.464L290.144 156.789L290.149 156.795L290.155 156.801L291.642 155.464ZM301.402 182.708L299.402 182.697V182.708H301.402ZM293.085 208.848L291.462 207.679L291.461 207.681L293.085 208.848ZM270.339 226.841L269.518 225.018L269.514 225.019L270.339 226.841ZM237.239 231.376C225.246 231.376 214.665 229.323 205.454 225.266L203.842 228.926C213.642 233.243 224.788 235.376 237.239 235.376V231.376ZM205.458 225.267C196.29 221.205 189.112 215.584 183.853 208.428L180.63 210.797C186.348 218.577 194.107 224.613 203.838 228.924L205.458 225.267ZM183.853 208.428C178.617 201.302 175.825 193.067 175.499 183.657L171.501 183.796C171.854 193.962 174.89 202.985 180.63 210.797L183.853 208.428ZM173.5 185.726H205.412V181.726H173.5V185.726ZM203.415 183.846C203.722 188.938 205.421 193.442 208.523 197.288L211.637 194.777C209.08 191.607 207.667 187.907 207.408 183.606L203.415 183.846ZM208.533 197.301C211.6 201.042 215.649 203.914 220.61 205.946L222.126 202.245C217.694 200.429 214.218 197.926 211.627 194.765L208.533 197.301ZM220.61 205.946C225.58 207.982 231.104 208.981 237.154 208.981V204.981C231.548 204.981 226.549 204.056 222.126 202.245L220.61 205.946ZM237.154 208.981C243.609 208.981 249.412 207.866 254.52 205.582L252.888 201.93C248.378 203.947 243.147 204.981 237.154 204.981V208.981ZM254.538 205.574C259.635 203.235 263.692 199.962 266.634 195.732L263.35 193.448C260.861 197.026 257.392 199.863 252.87 201.938L254.538 205.574ZM266.634 195.732C269.605 191.462 271.042 186.55 270.981 181.073L266.981 181.117C267.034 185.825 265.811 189.91 263.35 193.448L266.634 195.732ZM270.981 181.117C271.042 175.475 269.579 170.424 266.553 166.04L263.261 168.312C265.78 171.962 267.034 176.191 266.981 181.074L270.981 181.117ZM266.553 166.04C263.532 161.663 259.192 158.304 253.646 155.918L252.065 159.593C257.043 161.733 260.737 164.655 263.261 168.312L266.553 166.04ZM253.653 155.921C248.133 153.521 241.566 152.36 234.014 152.36V156.36C241.173 156.36 247.167 157.463 252.058 159.589L253.653 155.921ZM234.014 152.36H218.652V156.36H234.014V152.36ZM220.652 154.36V130.087H216.652V154.36H220.652ZM218.652 132.087H234.014V128.087H218.652V132.087ZM234.014 132.087C240.297 132.087 245.885 131 250.724 128.762L249.045 125.131C244.832 127.08 239.839 128.087 234.014 128.087V132.087ZM250.716 128.766C255.596 126.537 259.485 123.37 262.312 119.252L259.015 116.988C256.637 120.452 253.34 123.17 249.054 125.128L250.716 128.766ZM262.32 119.241C265.17 115.027 266.543 110.179 266.483 104.773L262.483 104.818C262.535 109.482 261.362 113.518 259.007 116.999L262.32 119.241ZM266.483 104.818C266.543 99.5727 265.364 94.9124 262.869 90.9194L259.477 93.0394C261.508 96.2889 262.536 100.172 262.483 104.772L266.483 104.818ZM262.888 90.9504C260.473 86.9259 257.038 83.8145 252.646 81.6185L250.858 85.1962C254.613 87.074 257.459 89.6773 259.458 93.0084L262.888 90.9504ZM252.657 81.6235C248.307 79.4181 243.26 78.3519 237.578 78.3519V82.3519C242.76 82.3519 247.163 83.3227 250.848 85.1911L252.657 81.6235ZM237.578 78.3519C232.013 78.3519 226.822 79.3597 222.028 81.3969L223.593 85.0782C227.852 83.2679 232.506 82.3519 237.578 82.3519V78.3519ZM222.028 81.3969C217.217 83.4416 213.283 86.3854 210.283 90.2423L213.441 92.6981C215.986 89.4257 219.351 86.881 223.593 85.0782L222.028 81.3969ZM210.293 90.2301C207.232 94.1026 205.633 98.7096 205.45 103.962L209.448 104.101C209.604 99.6209 210.947 95.8539 213.431 92.7103L210.293 90.2301ZM207.449 102.031H177.149V106.031H207.449V102.031ZM179.149 104.078C179.366 94.7245 182.049 86.5827 187.167 79.5799L183.937 77.2198C178.304 84.9282 175.385 93.874 175.15 103.985L179.149 104.078ZM187.165 79.5821C192.378 72.4684 199.341 66.9061 208.109 62.9055L206.449 59.2664C197.111 63.5267 189.589 69.507 183.939 77.2177L187.165 79.5821ZM208.119 62.9012C216.876 58.8507 226.741 56.8054 237.748 56.8054V52.8054C226.236 52.8054 215.788 54.9471 206.439 59.2707L208.119 62.9012ZM237.748 56.8054C249.097 56.8054 258.845 58.936 267.054 63.1223L268.871 59.5588C259.993 55.0316 249.598 52.8054 237.748 52.8054V56.8054ZM267.068 63.1294C275.383 67.2868 281.744 72.8563 286.226 79.8215L289.59 77.6572C284.678 70.0244 277.743 63.9947 268.857 59.5517L267.068 63.1294ZM286.226 79.8215C290.711 86.792 292.952 94.4781 292.952 102.928H296.952C296.952 93.7243 294.497 85.2847 289.59 77.6572L286.226 79.8215ZM292.952 102.939C293.006 112.296 290.261 120.009 284.794 126.219L287.796 128.862C293.985 121.833 297.011 113.137 296.952 102.916L292.952 102.939ZM284.787 126.227C279.326 132.491 272.139 136.617 263.125 138.572L263.973 142.481C273.744 140.362 281.721 135.831 287.803 128.855L284.787 126.227ZM261.549 140.526V141.884H265.549V140.526H261.549ZM263.274 143.865C275.148 145.514 284.028 149.875 290.144 156.789L293.14 154.139C286.242 146.341 276.394 141.649 263.824 139.903L263.274 143.865ZM290.155 156.801C296.349 163.69 299.457 172.274 299.402 182.697L303.402 182.718C303.461 171.415 300.062 161.836 293.129 154.126L290.155 156.801ZM299.402 182.708C299.402 192.032 296.755 200.334 291.462 207.679L294.707 210.018C300.504 201.973 303.402 192.848 303.402 182.708H299.402ZM291.461 207.681C286.203 214.999 278.914 220.786 269.518 225.018L271.16 228.665C281.115 224.183 288.99 217.975 294.709 210.015L291.461 207.681ZM269.514 225.019C260.197 229.24 249.453 231.376 237.239 231.376V235.376C249.921 235.376 261.244 233.156 271.164 228.663L269.514 225.019Z" fill="white"/>
</mask>
<g mask="url(#mask0_267_173)">
<rect x="-18" y="43" width="185" height="130" fill="white"/>
</g>
</svg>
