<svg viewBox="0 0 250 250" fill="none" xmlns="http://www.w3.org/2000/svg">
<g clip-path="url(#clip0_306_35)">
<g clip-path="url(#clip1_306_35)">
<path d="M208.496 0H41.5039C18.5819 0 0 19.0279 0 42.5V207.1C0 230.572 18.5819 249.6 41.5039 249.6H208.496C231.418 249.6 250 230.572 250 207.1V42.5C250 19.0279 231.418 0 208.496 0Z" fill="white" fill-opacity="0.2"/>
<path d="M131.424 65.6398L100.23 118.363L133.604 174.348C133.818 174.74 133.878 175.2 133.772 175.636C133.72 175.822 133.609 175.868 133.438 175.875L133.248 175.872L133.018 175.866C132.893 175.866 132.753 175.872 132.598 175.898H108.535L108.063 175.89C106.766 175.855 105.831 175.665 105.262 174.691C103.035 170.249 100.799 165.813 98.5529 161.382C96.5436 157.43 94.4796 153.507 92.3615 149.615L91.4259 147.901C88.8925 143.29 86.4047 138.653 83.963 133.991H83.7951C81.5402 138.604 79.22 143.184 76.8351 147.729C74.4298 152.309 72.0538 156.861 69.7072 161.382C67.3591 165.906 64.9553 170.4 62.4962 174.863C62.1007 175.773 61.4435 175.963 60.5285 175.994L60.1476 176H37.172L37.0724 176.003L36.7443 176.033C36.5617 176.044 36.4523 176.004 36.4171 175.722C36.3541 175.303 36.4438 174.875 36.6691 174.52L69.0363 120.08L37.507 65.4698C37.172 65.0138 37.1163 64.6418 37.339 64.3538C37.4628 64.2071 37.6182 64.0919 37.7929 64.0173C37.9676 63.9426 38.1569 63.9107 38.3458 63.9238H61.9923C62.508 63.8949 63.0235 63.983 63.5021 64.1818C63.9025 64.4148 64.2472 64.7378 64.5079 65.1268C66.5206 69.7068 68.757 74.2868 71.2169 78.8648C73.6578 83.414 76.1456 87.9366 78.6798 92.4318C81.1752 96.8575 83.4971 101.383 85.6398 105.999H85.8077C88.0037 101.385 90.2679 96.8047 92.5997 92.2608C94.8898 87.7958 97.2384 83.3008 99.6427 78.7788C102.016 74.3149 104.337 69.8212 106.603 65.2988C106.732 64.8748 106.962 64.4908 107.274 64.1818C107.688 63.9671 108.153 63.8776 108.615 63.9238H130.585C130.787 63.8723 131 63.8893 131.192 63.9723C131.383 64.0553 131.544 64.1998 131.648 64.384C131.753 64.5683 131.796 64.7824 131.772 64.9941C131.747 65.2058 131.657 65.4036 131.513 65.5578L131.425 65.6418L131.424 65.6398ZM180.711 178.113L179.555 178.126C171.835 178.246 164.187 176.604 157.165 173.318C150.624 170.218 145.156 165.157 141.485 158.806C137.782 152.51 135.882 144.664 135.786 135.271L135.782 134.506C135.72 126.624 137.687 118.864 141.485 112.009C145.287 105.224 150.83 99.633 157.513 95.8428L158.088 95.5228C165.354 91.4008 174.131 89.3398 184.418 89.3398L184.867 89.3448L185.381 89.3618L185.957 89.3878L186.598 89.4258L187.674 89.5038L188.893 89.6038L189.784 89.6838V55.8518C189.784 55.0518 190.12 54.6498 190.79 54.6498H211.922C212.059 54.6298 212.198 54.6426 212.329 54.6872C212.46 54.7319 212.579 54.8072 212.677 54.9072C212.774 55.0071 212.848 55.129 212.891 55.2631C212.935 55.3972 212.947 55.5399 212.928 55.6798V157.175C212.928 158.879 212.992 160.715 213.121 162.679L213.434 167.134L213.6 169.711C213.62 170.068 213.535 170.423 213.356 170.729C213.176 171.036 212.91 171.28 212.593 171.429C207.141 173.757 201.463 175.483 195.654 176.58C190.723 177.512 185.725 178.025 180.711 178.113ZM189.784 156.831V109.948C188.878 109.697 187.952 109.524 187.018 109.433C185.875 109.315 184.728 109.258 183.579 109.261C179.51 109.22 175.488 110.161 171.84 112.009C168.287 113.817 165.253 116.54 163.035 119.909C160.821 123.225 159.676 127.555 159.601 132.899L159.597 133.476C159.515 137.219 160.112 140.945 161.358 144.466C162.371 147.303 163.974 149.881 166.055 152.023C168.046 153.993 170.457 155.463 173.098 156.316C175.887 157.241 178.803 157.705 181.734 157.691C183.299 157.691 184.752 157.633 186.095 157.518C187.166 157.435 188.227 157.255 189.267 156.978L189.784 156.831Z" fill="white"/>
</g>
</g>
<defs>
<clipPath id="clip0_306_35">
<rect width="250" height="250" fill="white"/>
</clipPath>
<clipPath id="clip1_306_35">
<rect width="250" height="250" fill="white"/>
</clipPath>
</defs>
</svg>
