<svg viewBox="0 0 250 246" fill="none" xmlns="http://www.w3.org/2000/svg">
<g clip-path="url(#clip0_306_189)">
<path d="M10.043 10.8677H239.992V234.545H10.043V10.8677Z" fill="white" fill-opacity="0.2"/>
<path fill-rule="evenodd" clip-rule="evenodd" d="M165.138 86.3317C164.197 86.3317 163.884 86.7528 163.884 87.586H164V169.949C164 170.791 164.314 171.311 165.362 171.311H181.551C182.6 171.311 182.806 170.889 182.806 170.056V87.586C182.806 86.6453 182.385 86.3317 181.551 86.3317H165.138ZM165.86 56.3229C163.86 58.3224 162.737 61.0342 162.737 63.8618H162.755C162.636 65.2726 162.823 66.6925 163.302 68.0247C163.782 69.3568 164.543 70.5701 165.533 71.5818C166.524 72.5935 167.72 73.3799 169.042 73.8875C170.364 74.3951 171.779 74.612 173.192 74.5233C174.635 74.6543 176.088 74.4702 177.452 73.9836C178.816 73.4971 180.058 72.7198 181.092 71.7057C182.125 70.6915 182.926 69.4648 183.439 68.1103C183.951 66.7559 184.163 65.3063 184.06 63.8618C184.06 61.0342 182.937 58.3224 180.937 56.3229C178.938 54.3235 176.226 53.2002 173.398 53.2002C170.571 53.2002 167.859 54.3235 165.86 56.3229ZM112.029 107.857C113.474 113.354 114.783 118.334 115.701 121.981H90.9371C95.3272 105.782 100.864 85.0864 103.059 72.8569H103.265C105.037 81.2571 108.86 95.7992 112.029 107.857ZM78.3852 170.271L86.6456 138.914L86.6546 138.932H120.1L128.674 170.397C128.88 171.087 129.408 171.293 130.242 171.293H147.596C148.429 171.293 148.635 170.764 148.429 169.931L115.19 57.1513C114.984 56.3091 114.67 56.1031 113.936 56.1031H91.9854C91.4657 56.1031 91.1522 56.4166 91.1522 57.1513C91.1787 60.0753 90.8264 62.9904 90.1039 65.8239L60.4218 169.752C60.2157 171.006 60.4218 171.32 61.47 171.32H76.8173C77.8655 171.32 78.1791 171.104 78.3852 170.271Z" fill="white"/>
<path fill-rule="evenodd" clip-rule="evenodd" d="M-0.429688 213.001C-0.429688 230.674 13.8972 245.001 31.5703 245.001H218.43C236.104 245.001 250.43 230.674 250.43 213.001V32.4121C250.43 14.739 236.104 0.412109 218.43 0.412109H31.5703C13.8972 0.412109 -0.429688 14.739 -0.429688 32.4121V213.001ZM239.993 10.8676H10.0437V234.545H239.993V10.8676Z" fill="white" fill-opacity="0.2"/>
</g>
<defs>
<clipPath id="clip0_306_189">
<rect width="250" height="245.413" fill="white"/>
</clipPath>
</defs>
</svg>
