<svg viewBox="0 0 250 251" fill="none" xmlns="http://www.w3.org/2000/svg">
<g clip-path="url(#clip0_306_184)">
<path d="M208.496 0.998535H41.5039C18.5819 0.998535 0 20.0264 0 43.4985V208.099C0 231.571 18.5819 250.599 41.5039 250.599H208.496C231.418 250.599 250 231.571 250 208.099V43.4985C250 20.0264 231.418 0.998535 208.496 0.998535Z" fill="#0E201B"/>
<path d="M131.424 66.6386L100.23 119.362L133.604 175.347C133.818 175.739 133.878 176.199 133.772 176.635C133.72 176.821 133.609 176.867 133.438 176.874L133.248 176.871L133.018 176.865C132.893 176.865 132.753 176.871 132.598 176.897H108.535L108.063 176.889C106.766 176.854 105.831 176.664 105.262 175.69C103.035 171.248 100.799 166.812 98.5529 162.381C96.5436 158.428 94.4796 154.506 92.3615 150.614L91.4259 148.9C88.8925 144.289 86.4047 139.652 83.963 134.99H83.7951C81.5402 139.603 79.22 144.183 76.8351 148.728C74.4298 153.308 72.0538 157.86 69.7072 162.381C67.3591 166.905 64.9553 171.399 62.4962 175.862C62.1007 176.772 61.4435 176.962 60.5285 176.993L60.1476 176.999H37.172L37.0724 177.002L36.7443 177.032C36.5617 177.043 36.4523 177.003 36.4171 176.721C36.3541 176.302 36.4438 175.874 36.6691 175.519L69.0363 121.079L37.507 66.4686C37.172 66.0126 37.1163 65.6406 37.339 65.3526C37.4628 65.2059 37.6182 65.0907 37.7929 65.0161C37.9676 64.9414 38.1569 64.9094 38.3458 64.9226H61.9923C62.508 64.8937 63.0235 64.9818 63.5021 65.1806C63.9025 65.4136 64.2472 65.7366 64.5079 66.1256C66.5206 70.7056 68.757 75.2856 71.2169 79.8636C73.6578 84.4128 76.1456 88.9353 78.6798 93.4306C81.1752 97.8563 83.4971 102.382 85.6398 106.998H85.8077C88.0037 102.383 90.2679 97.8035 92.5997 93.2596C94.8898 88.7946 97.2384 84.2996 99.6427 79.7776C102.016 75.3136 104.337 70.82 106.603 66.2976C106.732 65.8736 106.962 65.4896 107.274 65.1806C107.688 64.9659 108.153 64.8764 108.615 64.9226H130.585C130.787 64.8711 131 64.8881 131.192 64.9711C131.383 65.054 131.544 65.1985 131.648 65.3828C131.753 65.5671 131.796 65.7812 131.772 65.9929C131.747 66.2046 131.657 66.4024 131.513 66.5566L131.425 66.6406L131.424 66.6386ZM180.711 179.112L179.555 179.125C171.835 179.245 164.187 177.603 157.165 174.317C150.624 171.217 145.156 166.156 141.485 159.805C137.782 153.509 135.882 145.663 135.786 136.27L135.782 135.505C135.72 127.623 137.687 119.863 141.485 113.008C145.287 106.222 150.83 100.632 157.513 96.8416L158.088 96.5216C165.354 92.3996 174.131 90.3386 184.418 90.3386L184.867 90.3436L185.381 90.3606L185.957 90.3866L186.598 90.4246L187.674 90.5026L188.893 90.6026L189.784 90.6826V56.8506C189.784 56.0506 190.12 55.6486 190.79 55.6486H211.922C212.059 55.6286 212.198 55.6414 212.329 55.686C212.46 55.7307 212.579 55.806 212.677 55.9059C212.774 56.0059 212.848 56.1278 212.891 56.2619C212.935 56.396 212.947 56.5387 212.928 56.6786V158.174C212.928 159.878 212.992 161.714 213.121 163.678L213.434 168.133L213.6 170.71C213.62 171.067 213.535 171.421 213.356 171.728C213.176 172.035 212.91 172.278 212.593 172.428C207.141 174.756 201.463 176.482 195.654 177.579C190.723 178.511 185.725 179.023 180.711 179.112ZM189.784 157.83V110.947C188.878 110.695 187.952 110.523 187.018 110.432C185.875 110.314 184.728 110.256 183.579 110.26C179.51 110.218 175.488 111.16 171.84 113.008C168.287 114.816 165.253 117.538 163.035 120.908C160.821 124.224 159.676 128.554 159.601 133.898L159.597 134.475C159.515 138.218 160.112 141.944 161.358 145.465C162.371 148.302 163.974 150.88 166.055 153.022C168.046 154.992 170.457 156.461 173.098 157.315C175.887 158.24 178.803 158.704 181.734 158.69C183.299 158.69 184.752 158.632 186.095 158.517C187.166 158.434 188.227 158.253 189.267 157.977L189.784 157.83Z" fill="#2DBE96"/>
</g>
<defs>
<clipPath id="clip0_306_184">
<rect width="250" height="250" fill="white" transform="translate(0 0.998535)"/>
</clipPath>
</defs>
</svg>
