<svg viewBox="0 0 250 248" fill="none" xmlns="http://www.w3.org/2000/svg">
<path d="M102.604 87.7083C98.75 86.1458 94.5833 85.5208 90.3125 85.625C87.6042 85.625 85.2083 85.625 83.2292 85.7292C81.1458 85.625 79.6875 85.7292 78.9583 85.8333V120.833C80.4167 120.938 81.7708 121.042 83.0208 121.042H88.5417C92.6042 121.042 96.6667 120.417 100.521 119.167C103.854 118.229 106.771 116.25 109.063 113.646C111.25 111.042 112.292 107.5 112.292 102.917C112.396 99.6875 111.562 96.4583 109.896 93.6458C108.159 90.9412 105.605 88.8612 102.604 87.7083ZM205.729 3.125H44.2708C19.7917 3.125 0 22.9167 0 47.3958V202.594C0 227.073 19.7917 246.865 44.2708 246.865H205.729C230.208 246.865 250 227.073 250 202.594V47.3958C250 22.9167 230.208 3.125 205.729 3.125ZM128.74 124.479C124.583 130.313 118.75 134.688 111.979 137.188C104.896 139.792 97.0833 140.729 88.5417 140.729C86.0417 140.729 84.375 140.729 83.3333 140.625C82.2917 140.521 80.8333 140.521 78.8542 140.521V173.948C78.9583 174.677 78.4375 175.313 77.7083 175.417H57.5C56.6667 175.417 56.25 174.99 56.25 174.052V66.875C56.25 66.1458 56.5625 65.7292 57.2917 65.7292C59.0625 65.7292 60.7292 65.7292 63.125 65.625C65.625 65.5208 68.2292 65.5208 71.0417 65.4167C73.8542 65.3125 76.875 65.3125 80.1042 65.2083C83.3333 65.1042 86.4583 65.1042 89.5833 65.1042C98.125 65.1042 105.208 66.1458 111.042 68.3333C116.25 70.1042 121.042 73.0208 125 76.875C128.333 80.2083 130.938 84.2708 132.604 88.75C134.156 93.125 134.99 97.6042 134.99 102.292C135 111.25 132.917 118.646 128.74 124.479ZM202.604 165C199.688 169.167 195.615 172.385 190.938 174.281C185.833 176.458 179.583 177.594 172.073 177.594C167.292 177.594 162.594 177.188 157.917 176.25C154.271 175.615 150.625 174.479 147.292 172.917C146.562 172.51 146.031 171.781 146.135 170.948V152.823C146.135 152.521 146.25 152.094 146.562 151.885C146.865 151.677 147.188 151.781 147.5 151.99C151.562 154.385 155.833 156.062 160.417 157.094C164.365 158.135 168.531 158.656 172.708 158.656C176.667 158.656 179.479 158.125 181.354 157.188C183.021 156.458 184.167 154.688 184.167 152.812C184.167 151.344 183.333 150 181.667 148.646C180 147.302 176.573 145.74 171.469 143.74C166.156 141.865 161.271 139.365 156.677 136.25C153.418 133.915 150.711 130.893 148.75 127.396C147.094 124.1 146.275 120.448 146.365 116.76C146.365 112.281 147.615 108.01 149.917 104.156C152.521 99.9896 156.365 96.6563 160.844 94.5729C165.729 92.0833 171.875 90.9375 179.271 90.9375C183.542 90.9375 187.917 91.25 192.188 91.875C195.313 92.2917 198.333 93.125 201.146 94.2708C201.552 94.375 201.979 94.7917 202.188 95.2083C202.292 95.625 202.396 96.0417 202.396 96.4583V113.438C202.396 113.854 202.188 114.271 201.875 114.479C200.938 114.688 200.417 114.688 200 114.479C196.875 112.812 193.542 111.667 190 110.938C186.146 110.104 182.292 109.583 178.333 109.583C176.25 109.479 174.062 109.792 172.073 110.313C170.729 110.625 169.573 111.354 168.844 112.396C168.323 113.229 168.01 114.271 168.01 115.208C168.01 116.146 168.427 117.083 169.062 117.917C170 119.062 171.24 120 172.604 120.729C174.99 121.979 177.5 123.125 179.99 124.167C185.625 126.042 191.042 128.646 196.042 131.771C199.479 133.948 202.292 136.875 204.26 140.417C205.927 143.729 206.76 147.396 206.656 151.135C206.771 156.042 205.313 160.927 202.604 165Z" fill="white" fill-opacity="0.2"/>
<path d="M202.604 165C199.688 169.167 195.615 172.385 190.938 174.281C185.833 176.458 179.583 177.594 172.073 177.594C167.292 177.594 162.594 177.188 157.917 176.25C154.271 175.615 150.625 174.479 147.292 172.917C146.562 172.51 146.031 171.781 146.135 170.948V152.823C146.135 152.521 146.25 152.094 146.562 151.885C146.865 151.677 147.188 151.781 147.5 151.99C151.562 154.385 155.833 156.062 160.417 157.094C164.365 158.135 168.531 158.656 172.708 158.656C176.667 158.656 179.479 158.125 181.354 157.188C183.021 156.458 184.167 154.688 184.167 152.812C184.167 151.344 183.333 150 181.667 148.646C180 147.302 176.573 145.74 171.469 143.74C166.156 141.865 161.271 139.365 156.677 136.25C153.418 133.915 150.711 130.893 148.75 127.396C147.094 124.1 146.275 120.448 146.365 116.76C146.365 112.281 147.615 108.01 149.917 104.156C152.521 99.9896 156.365 96.6563 160.844 94.5729C165.729 92.0833 171.875 90.9375 179.271 90.9375C183.542 90.9375 187.917 91.25 192.188 91.875C195.313 92.2917 198.333 93.125 201.146 94.2708C201.552 94.375 201.979 94.7917 202.188 95.2083C202.292 95.625 202.396 96.0417 202.396 96.4583V113.438C202.396 113.854 202.188 114.271 201.875 114.479C200.938 114.688 200.417 114.688 200 114.479C196.875 112.812 193.542 111.667 190 110.938C186.146 110.104 182.292 109.583 178.333 109.583C176.25 109.479 174.062 109.792 172.073 110.313C170.729 110.625 169.573 111.354 168.844 112.396C168.323 113.229 168.01 114.271 168.01 115.208C168.01 116.146 168.427 117.083 169.062 117.917C170 119.062 171.24 120 172.604 120.729C174.99 121.979 177.5 123.125 179.99 124.167C185.625 126.042 191.042 128.646 196.042 131.771C199.479 133.948 202.292 136.875 204.26 140.417C205.927 143.729 206.76 147.396 206.656 151.135C206.771 156.042 205.313 160.927 202.604 165Z" fill="white"/>
<path fill-rule="evenodd" clip-rule="evenodd" d="M128.74 124.479C124.583 130.313 118.75 134.688 111.979 137.188C104.896 139.792 97.0833 140.729 88.5417 140.729C86.0417 140.729 84.375 140.729 83.3333 140.625C82.2917 140.521 80.8333 140.521 78.8542 140.521V173.948C78.9583 174.677 78.4375 175.313 77.7083 175.417H57.5C56.6667 175.417 56.25 174.99 56.25 174.052V66.875C56.25 66.1458 56.5625 65.7292 57.2917 65.7292C59.0625 65.7292 60.7292 65.7292 63.125 65.625C65.625 65.5208 68.2292 65.5208 71.0417 65.4167C73.8542 65.3125 76.875 65.3125 80.1042 65.2083C83.3333 65.1042 86.4583 65.1042 89.5833 65.1042C98.125 65.1042 105.208 66.1458 111.042 68.3333C116.25 70.1042 121.042 73.0208 125 76.875C128.333 80.2083 130.938 84.2708 132.604 88.75C134.156 93.125 134.99 97.6042 134.99 102.292C135 111.25 132.917 118.646 128.74 124.479ZM90.3125 85.625C94.5833 85.5208 98.75 86.1458 102.604 87.7083C105.605 88.8612 108.159 90.9412 109.896 93.6458C111.562 96.4583 112.396 99.6875 112.292 102.917C112.292 107.5 111.25 111.042 109.063 113.646C106.771 116.25 103.854 118.229 100.521 119.167C96.6667 120.417 92.6042 121.042 88.5417 121.042H83.0208C81.7708 121.042 80.4167 120.938 78.9583 120.833V85.8333C79.6875 85.7292 81.1458 85.625 83.2292 85.7292C85.2083 85.625 87.6042 85.625 90.3125 85.625Z" fill="white"/>
</svg>
