<svg width="250" height="250" viewBox="0 0 250 250" fill="none" xmlns="http://www.w3.org/2000/svg">
<path d="M191.406 0H58.5938C26.2333 0 0 26.2333 0 58.5938V191.406C0 223.767 26.2333 250 58.5938 250H191.406C223.767 250 250 223.767 250 191.406V58.5938C250 26.2333 223.767 0 191.406 0Z" fill="white" fill-opacity="0.2"/>
<path d="M125 143.507C135.063 143.507 143.219 135.35 143.219 125.288C143.219 115.227 135.063 107.069 125 107.069C114.938 107.069 106.781 115.227 106.781 125.288C106.781 135.35 114.938 143.507 125 143.507Z" fill="white"/>
<path d="M125.002 88.2451C149.463 88.2451 172.187 91.7549 189.32 97.6543C209.964 104.761 222.656 115.533 222.656 125.288C222.656 135.453 209.205 146.897 187.036 154.242C170.276 159.795 148.222 162.693 125.002 162.693C101.195 162.693 78.6514 159.973 61.7021 154.181C40.2588 146.852 27.3438 135.26 27.3438 125.288C27.3438 115.612 39.4629 104.923 59.8164 97.8272C77.0137 91.8311 100.298 88.2451 124.998 88.2451H125.002Z" stroke="white" stroke-width="8.911"/>
<path d="M92.7557 106.873C104.976 85.6836 119.368 67.7519 133.038 55.8574C149.507 41.5244 165.181 35.9111 173.63 40.7832C182.435 45.8613 185.63 63.2324 180.918 86.1055C177.358 103.397 168.848 123.95 157.248 144.065C145.354 164.688 131.736 182.858 118.253 194.644C101.191 209.558 84.6961 214.955 76.0584 209.974C67.6766 205.144 64.4715 189.303 68.493 168.126C71.8905 150.232 80.4168 128.271 92.7518 106.873H92.7557Z" stroke="white" stroke-width="8.911"/>
<path d="M92.786 144.119C80.5311 122.953 72.1873 101.525 68.7049 83.7421C64.5125 62.3154 67.4764 45.9335 75.9188 41.0468C84.7166 35.9531 101.36 41.8613 118.823 57.3671C132.026 69.0898 145.584 86.7236 157.218 106.819C169.145 127.423 178.085 148.297 181.562 165.863C185.963 188.094 182.401 205.079 173.771 210.074C165.398 214.922 150.075 209.79 133.736 195.729C119.931 183.851 105.162 165.496 92.786 144.119Z" stroke="white" stroke-width="8.911"/>
</svg>
