<svg viewBox="0 0 250 251" fill="none" xmlns="http://www.w3.org/2000/svg">
<path fill-rule="evenodd" clip-rule="evenodd" d="M205.729 4.12354H44.2708C19.7917 4.12354 0 23.9152 0 48.3944V203.592C0 228.071 19.7917 247.863 44.2708 247.863H205.729C230.208 247.863 250 228.071 250 203.592V48.3944C250 23.9152 230.208 4.12354 205.729 4.12354ZM111.979 138.186C118.75 135.686 124.583 131.311 128.74 125.478C132.917 119.644 135 112.249 134.99 103.29C134.99 98.6027 134.156 94.1235 132.604 89.7485C130.938 85.2694 128.333 81.2069 125 77.8735C121.042 74.0194 116.25 71.1027 111.042 69.3319C105.208 67.1444 98.125 66.1027 89.5833 66.1027C86.4583 66.1027 83.3333 66.1027 80.1042 66.2069C76.875 66.311 73.8542 66.311 71.0417 66.4152C68.2292 66.5194 65.625 66.5194 63.125 66.6235C60.7292 66.7277 59.0625 66.7277 57.2917 66.7277C56.5625 66.7277 56.25 67.1444 56.25 67.8735V175.051C56.25 175.988 56.6667 176.415 57.5 176.415H77.7083C78.4375 176.311 78.9583 175.676 78.8542 174.946V141.519C80.8333 141.519 82.2917 141.519 83.3333 141.624C84.375 141.728 86.0417 141.728 88.5417 141.728C97.0833 141.728 104.896 140.79 111.979 138.186ZM190.938 175.28C195.615 173.384 199.688 170.165 202.604 165.999C205.313 161.926 206.771 157.04 206.656 152.134C206.76 148.394 205.927 144.728 204.26 141.415C202.292 137.874 199.479 134.946 196.042 132.769C191.042 129.644 185.625 127.04 179.99 125.165C177.5 124.124 174.99 122.978 172.604 121.728C171.24 120.999 170 120.061 169.062 118.915C168.427 118.082 168.01 117.144 168.01 116.207C168.01 115.269 168.323 114.228 168.844 113.394C169.573 112.353 170.729 111.624 172.073 111.311C174.062 110.79 176.25 110.478 178.333 110.582C182.292 110.582 186.146 111.103 190 111.936C193.542 112.665 196.875 113.811 200 115.478C200.417 115.686 200.938 115.686 201.875 115.478C202.188 115.269 202.396 114.853 202.396 114.436V97.4569C202.396 97.0402 202.292 96.6235 202.188 96.2069C201.979 95.7902 201.552 95.3735 201.146 95.2694C198.333 94.1235 195.313 93.2902 192.188 92.8735C187.917 92.2485 183.542 91.936 179.271 91.936C171.875 91.936 165.729 93.0819 160.844 95.5715C156.365 97.6548 152.521 100.988 149.917 105.155C147.615 109.009 146.365 113.28 146.365 117.759C146.275 121.446 147.094 125.099 148.75 128.394C150.711 131.891 153.418 134.914 156.677 137.249C161.271 140.363 166.156 142.863 171.469 144.738C176.573 146.738 180 148.301 181.667 149.644C183.333 150.999 184.167 152.342 184.167 153.811C184.167 155.686 183.021 157.457 181.354 158.186C179.479 159.124 176.667 159.655 172.708 159.655C168.531 159.655 164.365 159.134 160.417 158.092C155.833 157.061 151.562 155.384 147.5 152.988C147.188 152.78 146.865 152.676 146.562 152.884C146.25 153.092 146.135 153.519 146.135 153.821V171.946C146.031 172.78 146.562 173.509 147.292 173.915C150.625 175.478 154.271 176.613 157.917 177.249C162.594 178.186 167.292 178.592 172.073 178.592C179.583 178.592 185.833 177.457 190.938 175.28Z" fill="#0E201B"/>
<path fill-rule="evenodd" clip-rule="evenodd" d="M128.74 125.478C124.583 131.311 118.75 135.686 111.979 138.186C104.896 140.79 97.0833 141.728 88.5417 141.728C86.0417 141.728 84.375 141.728 83.3333 141.624C82.2917 141.519 80.8333 141.519 78.8542 141.519V174.946C78.9583 175.676 78.4375 176.311 77.7083 176.415H57.5C56.6667 176.415 56.25 175.988 56.25 175.051V67.8735C56.25 67.1444 56.5625 66.7277 57.2917 66.7277C59.0625 66.7277 60.7292 66.7277 63.125 66.6235C65.625 66.5194 68.2292 66.5194 71.0417 66.4152C73.8542 66.311 76.875 66.311 80.1042 66.2069C83.3333 66.1027 86.4583 66.1027 89.5833 66.1027C98.125 66.1027 105.208 67.1444 111.042 69.3319C116.25 71.1027 121.042 74.0194 125 77.8735C128.333 81.2069 130.938 85.2694 132.604 89.7485C134.156 94.1235 134.99 98.6027 134.99 103.29C135 112.249 132.917 119.644 128.74 125.478ZM90.3125 86.6235C94.5833 86.5194 98.75 87.1444 102.604 88.7069C105.605 89.8598 108.159 91.9398 109.896 94.6444C111.562 97.4569 112.396 100.686 112.292 103.915C112.292 108.499 111.25 112.04 109.063 114.644C106.771 117.249 103.854 119.228 100.521 120.165C96.6667 121.415 92.6042 122.04 88.5417 122.04H83.0208C81.8606 122.04 80.6106 121.95 79.2709 121.854L78.9583 121.832V86.8319C79.6875 86.7277 81.1458 86.6235 83.2292 86.7277C85.2083 86.6235 87.6042 86.6235 90.3125 86.6235Z" fill="#2DBE96"/>
<path d="M202.604 165.999C199.688 170.165 195.615 173.384 190.938 175.28C185.833 177.457 179.583 178.592 172.073 178.592C167.292 178.592 162.594 178.186 157.917 177.249C154.271 176.613 150.625 175.478 147.292 173.915C146.562 173.509 146.031 172.78 146.135 171.946V153.821C146.135 153.519 146.25 153.092 146.562 152.884C146.865 152.676 147.188 152.78 147.5 152.988C151.562 155.384 155.833 157.061 160.417 158.092C164.365 159.134 168.531 159.655 172.708 159.655C176.667 159.655 179.479 159.124 181.354 158.186C183.021 157.457 184.167 155.686 184.167 153.811C184.167 152.342 183.333 150.999 181.667 149.644C180 148.301 176.573 146.738 171.469 144.738C166.156 142.863 161.271 140.363 156.677 137.249C153.418 134.914 150.711 131.891 148.75 128.394C147.094 125.099 146.275 121.446 146.365 117.759C146.365 113.28 147.615 109.009 149.917 105.155C152.521 100.988 156.365 97.6548 160.844 95.5715C165.729 93.0819 171.875 91.936 179.271 91.936C183.542 91.936 187.917 92.2485 192.188 92.8735C195.313 93.2902 198.333 94.1235 201.146 95.2694C201.552 95.3735 201.979 95.7902 202.188 96.2069C202.292 96.6235 202.396 97.0402 202.396 97.4569V114.436C202.396 114.853 202.188 115.269 201.875 115.478C200.938 115.686 200.417 115.686 200 115.478C196.875 113.811 193.542 112.665 190 111.936C186.146 111.103 182.292 110.582 178.333 110.582C176.25 110.478 174.062 110.79 172.073 111.311C170.729 111.624 169.573 112.353 168.844 113.394C168.323 114.228 168.01 115.269 168.01 116.207C168.01 117.144 168.427 118.082 169.062 118.915C170 120.061 171.24 120.999 172.604 121.728C174.99 122.978 177.5 124.124 179.99 125.165C185.625 127.04 191.042 129.644 196.042 132.769C199.479 134.946 202.292 137.874 204.26 141.415C205.927 144.728 206.76 148.394 206.656 152.134C206.771 157.04 205.313 161.926 202.604 165.999Z" fill="#2DBE96"/>
<path d="M102.604 88.7069C98.75 87.1444 94.5833 86.5194 90.3125 86.6235C87.6042 86.6235 85.2083 86.6235 83.2292 86.7277C81.1458 86.6235 79.6875 86.7277 78.9583 86.8319V121.832L79.2709 121.854C80.6106 121.95 81.8606 122.04 83.0208 122.04H88.5417C92.6042 122.04 96.6667 121.415 100.521 120.165C103.854 119.228 106.771 117.249 109.063 114.644C111.25 112.04 112.292 108.499 112.292 103.915C112.396 100.686 111.562 97.4569 109.896 94.6444C108.159 91.9398 105.605 89.8598 102.604 88.7069Z" fill="#0E201B"/>
</svg>
