<svg width="250" height="251" viewBox="0 0 250 251" fill="none" xmlns="http://www.w3.org/2000/svg">
<g clip-path="url(#clip0_306_177)">
<path d="M191.406 0.998535H58.5938C26.2333 0.998535 0 27.2318 0 59.5923V192.405C0 224.765 26.2333 250.999 58.5938 250.999H191.406C223.767 250.999 250 224.765 250 192.405V59.5923C250 27.2318 223.767 0.998535 191.406 0.998535Z" fill="#0E201B"/>
<path d="M125.001 144.505C135.063 144.505 143.22 136.348 143.22 126.287C143.22 116.225 135.063 108.068 125.001 108.068C114.939 108.068 106.782 116.225 106.782 126.287C106.782 136.348 114.939 144.505 125.001 144.505Z" fill="#2DBE96"/>
<path d="M125.002 89.2437C149.463 89.2437 172.187 92.7534 189.32 98.6528C209.964 105.759 222.656 116.532 222.656 126.287C222.656 136.452 209.205 147.896 187.036 155.241C170.276 160.793 148.222 163.692 125.002 163.692C101.195 163.692 78.6514 160.971 61.7021 155.179C40.2588 147.85 27.3438 136.258 27.3438 126.287C27.3438 116.611 39.4629 105.921 59.8164 98.8257C77.0137 92.8296 100.298 89.2437 124.998 89.2437H125.002Z" stroke="#2DBE96" stroke-width="8.911"/>
<path d="M92.7547 107.872C104.975 86.6821 119.367 68.7505 133.037 56.8559C149.506 42.5229 165.18 36.9097 173.629 41.7817C182.434 46.8599 185.629 64.2309 180.917 87.104C177.357 104.396 168.847 124.949 157.247 145.064C145.353 165.687 131.735 183.857 118.252 195.642C101.19 210.556 84.6952 215.954 76.0575 210.972C67.6756 206.142 64.4705 190.301 68.492 169.125C71.8895 151.231 80.4158 129.269 92.7508 107.872H92.7547Z" stroke="#2DBE96" stroke-width="8.911"/>
<path d="M92.785 145.118C80.5301 123.952 72.1863 102.524 68.7039 84.7407C64.5115 63.3139 67.4754 46.9321 75.9178 42.0454C84.7156 36.9516 101.359 42.8598 118.822 58.3657C132.025 70.0883 145.583 87.7221 157.217 107.818C169.144 128.421 178.084 149.295 181.561 166.862C185.962 189.092 182.4 206.078 173.77 211.073C165.397 215.92 150.074 210.789 133.735 196.728C119.93 184.849 105.161 166.495 92.785 145.118Z" stroke="#2DBE96" stroke-width="8.911"/>
</g>
<defs>
<clipPath id="clip0_306_177">
<rect width="250" height="250" fill="white" transform="translate(0 0.998535)"/>
</clipPath>
</defs>
</svg>
