<svg viewBox="0 0 250 247" fill="none" xmlns="http://www.w3.org/2000/svg">
<g clip-path="url(#clip0_306_172)">
<path d="M10.043 11.8662H239.992V235.544H10.043V11.8662Z" fill="#0E201B"/>
<path fill-rule="evenodd" clip-rule="evenodd" d="M165.138 87.3302C164.22 87.3302 163.899 87.7316 163.884 88.5261C163.884 88.5582 163.91 88.5845 163.942 88.5845V88.5845C163.974 88.5845 164 88.6106 164 88.6428V170.947C164 171.789 164.314 172.309 165.362 172.309H181.551C182.6 172.309 182.806 171.888 182.806 171.055V88.5845C182.806 87.6438 182.385 87.3302 181.551 87.3302H165.138ZM165.86 57.3215C163.862 59.3189 162.739 62.0272 162.737 64.8517C162.737 64.8565 162.741 64.8603 162.745 64.8603V64.8603C162.751 64.8603 162.754 64.8646 162.754 64.8696C162.637 66.2774 162.824 67.694 163.302 69.0232C163.782 70.3554 164.543 71.5686 165.533 72.5803C166.524 73.592 167.72 74.3785 169.042 74.8861C169.861 75.2004 170.715 75.4032 171.583 75.4911C172.65 75.5992 173.732 75.6137 174.802 75.5378C175.704 75.4739 176.596 75.2876 177.452 74.9822C178.816 74.4956 180.058 73.7184 181.092 72.7042C182.125 71.6901 182.926 70.4633 183.439 69.1089C183.951 67.7545 184.163 66.3048 184.06 64.8603C184.06 62.0327 182.937 59.3209 180.937 57.3215C178.938 55.322 176.226 54.1988 173.398 54.1988C170.571 54.1988 167.859 55.322 165.86 57.3215ZM112.029 108.855C112.23 109.617 112.427 110.368 112.621 111.108C114.203 117.13 109.662 122.979 103.436 122.979V122.979C97.1369 122.979 92.5639 116.998 94.183 110.911C97.745 97.5188 101.357 83.297 103.041 73.9564C103.052 73.8968 103.103 73.8555 103.164 73.8555V73.8555C103.223 73.8555 103.273 73.8949 103.286 73.9528C105.067 82.3676 108.872 96.8441 112.029 108.855ZM78.3852 171.27L86.6415 139.928C86.6429 139.923 86.6504 139.922 86.6529 139.927V139.927C86.654 139.929 86.6561 139.93 86.6584 139.93H104.056C113.528 139.93 121.827 146.271 124.318 155.409L128.674 171.395C128.88 172.085 129.408 172.291 130.242 172.291H147.596C148.429 172.291 148.635 171.763 148.429 170.929L115.19 58.1498C114.984 57.3076 114.67 57.1016 113.936 57.1016H91.9854C91.4657 57.1016 91.1522 57.4152 91.1522 58.1498C91.1787 61.0738 90.8264 63.9889 90.1039 66.8224L60.4218 170.75C60.2157 172.004 60.4218 172.318 61.47 172.318H76.8173C77.8655 172.318 78.1791 172.103 78.3852 171.27Z" fill="#2DBE96"/>
<path fill-rule="evenodd" clip-rule="evenodd" d="M-0.429688 224.999C-0.429688 236.597 8.97233 245.999 20.5703 245.999H229.43C241.028 245.999 250.43 236.597 250.43 224.999V22.4107C250.43 10.8127 241.028 1.41064 229.43 1.41064H20.5703C8.97236 1.41064 -0.429688 10.8127 -0.429688 22.4106V224.999ZM239.993 32.8661C239.993 21.2682 230.591 11.8661 218.993 11.8661H31.0437C19.4457 11.8661 10.0437 21.2681 10.0437 32.8661V214.544C10.0437 226.142 19.4457 235.544 31.0437 235.544H218.993C230.591 235.544 239.993 226.142 239.993 214.544V32.8661Z" fill="#0E201B"/>
</g>
<defs>
<clipPath id="clip0_306_172">
<rect width="250" height="245.413" fill="white" transform="translate(0 0.998535)"/>
</clipPath>
</defs>
</svg>
